<svg width="53" height="57" viewBox="0 0 53 57" fill="none" xmlns="http://www.w3.org/2000/svg">
<path d="M0 11C0 4.92487 4.92487 0 11 0H53V57H11C4.92487 57 0 52.0751 0 46V11Z" fill="white"/>
<rect opacity="0.01" x="7" y="10" width="41" height="41" rx="10" fill="#D9D9D9"/>
<path d="M29.541 30.4312L39.666 20.3062C39.8936 20.0405 40.0125 19.6987 39.999 19.3492C39.9855 18.9996 39.8406 18.668 39.5932 18.4207C39.3458 18.1733 39.0143 18.0284 38.6647 18.0149C38.3152 18.0014 37.9734 18.1203 37.7077 18.3479L27.5827 28.4729L17.4577 18.334C17.192 18.1064 16.8502 17.9875 16.5007 18.001C16.1511 18.0145 15.8195 18.1594 15.5722 18.4068C15.3248 18.6541 15.1799 18.9857 15.1664 19.3353C15.1529 19.6848 15.2718 20.0266 15.4994 20.2923L25.6244 30.4312L15.4855 40.5562C15.3401 40.6807 15.222 40.8339 15.1386 41.0062C15.0553 41.1785 15.0084 41.3662 15.001 41.5575C14.9936 41.7488 15.0259 41.9395 15.0957 42.1178C15.1655 42.296 15.2714 42.4578 15.4068 42.5932C15.5422 42.7286 15.704 42.8345 15.8823 42.9043C16.0605 42.9741 16.2512 43.0064 16.4425 42.999C16.6338 42.9916 16.8215 42.9447 16.9938 42.8614C17.1661 42.778 17.3193 42.6599 17.4438 42.5145L27.5827 32.3895L37.7077 42.5145C37.9734 42.7421 38.3152 42.861 38.6647 42.8475C39.0143 42.834 39.3458 42.689 39.5932 42.4417C39.8406 42.1943 39.9855 41.8628 39.999 41.5132C40.0125 41.1637 39.8936 40.8219 39.666 40.5562L29.541 30.4312Z" fill="black"/>
</svg>
