<svg width="53" height="57" viewBox="0 0 53 57" fill="none" xmlns="http://www.w3.org/2000/svg">
<g opacity="0.58">
<mask id="path-1-inside-1_7006_12529" fill="white">
<path d="M0 11C0 4.92487 4.92487 0 11 0H53V57H11C4.92487 57 0 52.0751 0 46V11Z"/>
</mask>
<path d="M0 11C0 4.92487 4.92487 0 11 0H53V57H11C4.92487 57 0 52.0751 0 46V11Z" fill="white"/>
<path d="M-1 11C-1 4.37258 4.37258 -1 11 -1H53V1H11C5.47715 1 1 5.47715 1 11H-1ZM53 58H11C4.37258 58 -1 52.6274 -1 46H1C1 51.5228 5.47715 56 11 56H53V58ZM11 58C4.37258 58 -1 52.6274 -1 46V11C-1 4.37258 4.37258 -1 11 -1V1C5.47715 1 1 5.47715 1 11V46C1 51.5228 5.47715 56 11 56V58ZM53 0V57V0Z" fill="#E6E6E6" mask="url(#path-1-inside-1_7006_12529)"/>
<path d="M33.9353 36.5273L32.5297 39.1704L39.4117 38.0453C38.0229 37.3487 36.1428 36.8508 33.9353 36.5273ZM16.2069 37.1036C13.0194 37.9442 11 39.3217 11 41.3677C11.0013 41.8082 11.0976 42.2432 11.2823 42.6431L22.3274 40.8378L16.2069 37.1036ZM41.7411 40.1744L26.3687 42.6799L30.4228 47.292C37.0801 46.6957 42 44.5691 42 41.3677C42 40.941 41.9081 40.5446 41.7411 40.1748V40.1744ZM23.7713 43.1121L13.3844 44.8098C16.13 46.5108 20.9758 47.4685 26.5 47.4685C26.8348 47.4685 27.1619 47.459 27.4916 47.4521L23.7713 43.1121Z" fill="black"/>
<path d="M26.4961 11C20.5514 11 15.6738 15.8626 15.6738 21.7938C15.6738 24.074 16.3985 26.198 17.6221 27.9446L24.6368 40.0711L24.6667 40.1101C24.9436 40.4715 25.2138 40.7567 25.5311 40.9664C25.8484 41.1765 26.2423 41.302 26.6289 41.2633C27.4013 41.186 27.8743 40.6404 28.3233 40.0321L28.3474 40.0007L36.0915 26.8199L36.0959 26.8115C36.2775 26.4832 36.4117 26.1492 36.5255 25.8238C37.0479 24.5445 37.3167 23.1758 37.3169 21.7938C37.3169 15.8626 32.4408 11 26.4961 11ZM26.4961 17.2164C29.0749 17.2164 31.0878 19.2256 31.0878 21.7935C31.0878 24.3621 29.0749 26.3705 26.4961 26.3705C23.9169 26.3705 21.903 24.3617 21.903 21.7935C21.903 19.2259 23.9173 17.2164 26.4961 17.2164Z" fill="black"/>
</g>
</svg>
