<svg width="40" height="54" viewBox="0 0 40 54" fill="none" xmlns="http://www.w3.org/2000/svg">
<g clip-path="url(#clip0_7006_12002)">
<path d="M17.9446 52.2573C2.80938 30.3157 0 28.0639 0 20C0 8.95427 8.95427 0 20 0C31.0457 0 40 8.95427 40 20C40 28.0639 37.1906 30.3157 22.0554 52.2573C21.0622 53.6921 18.9377 53.692 17.9446 52.2573Z" fill="#F64B4B"/>
<path d="M19.988 28.6345L18.3696 28.3585L20.7972 27.3232L21.0083 28.1169L20.6917 28.5655L19.988 28.6345Z" fill="white"/>
<path fill-rule="evenodd" clip-rule="evenodd" d="M20.9032 27.1045L21.1806 28.1475L20.7791 28.7164L19.9818 28.7946L17.8091 28.424L20.9032 27.1045ZM18.9291 28.2922L19.9932 28.4738L20.6032 28.4139L20.8349 28.0856L20.6902 27.5413L18.9291 28.2922Z" fill="black"/>
<path fill-rule="evenodd" clip-rule="evenodd" d="M18.4086 28.4092L17.6168 28.2305L17.2534 28.1729L16.4243 27.9838L16.0779 27.8988L15.5501 27.6985L15.2172 27.5468L14.9577 27.4015L14.5918 27.1337L14.2415 26.7452L13.9453 26.4838L11.5974 26.4845L10.9465 26.4672C8.50679 26.3115 6.31141 23.2196 6.15942 19.7511C11.5961 19.6367 14.8837 18.5264 19.2148 18.2375C20.0555 18.1814 21.0673 18.0139 21.7638 18.4537L22.2349 18.7512C25.1939 20.5239 30.2968 24.1857 33.5153 24.852L33.8412 25.1172C33.5959 28.2999 25.7068 23.3888 22.5246 23.2893C22.6865 23.8299 24.0194 27.3182 22.8114 27.7181" fill="white"/>
<path fill-rule="evenodd" clip-rule="evenodd" d="M19.6063 18.3665C19.4784 18.3771 19.3511 18.3877 19.225 18.3961C17.3968 18.5181 15.7563 18.7869 14.0517 19.0662C13.7459 19.1163 13.438 19.1667 13.1266 19.2167C11.1221 19.5386 8.97966 19.8403 6.32667 19.9063C6.42968 21.5504 6.99693 23.0969 7.82433 24.2591C8.68014 25.4612 9.79914 26.2333 10.9534 26.3082L11.5991 26.3253L13.945 26.3247C13.9837 26.3246 14.0212 26.3388 14.0503 26.3644L14.3465 26.6258C14.351 26.6298 14.3553 26.634 14.3594 26.6385L14.6987 27.0149L15.0435 27.2673L15.2889 27.4047L15.611 27.5515L16.125 27.7465L16.4606 27.8289L17.2832 28.0165L17.6414 28.0732C17.6448 28.0738 17.6482 28.0744 17.6515 28.0752L18.4433 28.2539C18.529 28.2733 18.5828 28.3584 18.5634 28.4441C18.5441 28.5298 18.4589 28.5836 18.3732 28.5643L17.5865 28.3867L17.2282 28.3299C17.2246 28.3294 17.2211 28.3287 17.2177 28.3279L16.386 28.1382L16.0397 28.0532C16.0334 28.0516 16.0272 28.0497 16.0212 28.0474L15.4933 27.8472C15.4914 27.8464 15.4895 27.8457 15.4876 27.8449C15.4863 27.8443 15.485 27.8438 15.4838 27.8432L15.1509 27.6915C15.1469 27.6897 15.143 27.6877 15.1391 27.6855L14.8796 27.5402C14.874 27.537 14.8686 27.5335 14.8634 27.5297L14.4975 27.2619C14.4887 27.2555 14.4806 27.2482 14.4733 27.2401L14.1291 26.8583L13.8849 26.6429L11.5928 26.6435L10.9419 26.6262C10.94 26.6261 10.938 26.626 10.936 26.6259C9.65158 26.5439 8.45421 25.6925 7.56513 24.4436C6.67409 23.192 6.07746 21.5222 6.00015 19.758C5.99828 19.7152 6.01373 19.6735 6.04301 19.6422C6.07229 19.611 6.11293 19.5929 6.15574 19.592C8.86328 19.535 11.036 19.2301 13.0761 18.9026C13.3857 18.8529 13.6924 18.8026 13.9975 18.7526C15.7021 18.4733 17.3592 18.2017 19.2038 18.0787C19.3188 18.071 19.4395 18.0609 19.5636 18.0506C19.8802 18.0243 20.2195 17.996 20.5452 18.0005C21.0017 18.0067 21.4637 18.0761 21.8484 18.3191L22.3179 18.6156C22.9851 19.0154 23.7606 19.5106 24.596 20.0441C24.6894 20.1037 24.7836 20.1639 24.8784 20.2244C25.8232 20.8274 26.8372 21.4709 27.8589 22.0797C29.908 23.3008 31.9674 24.369 33.5472 24.6961C33.5722 24.7013 33.5956 24.7124 33.6154 24.7285L33.9413 24.9937C33.9818 25.0266 34.0035 25.0773 33.9995 25.1293C33.966 25.5646 33.7979 25.8844 33.5054 26.0872C33.2206 26.2845 32.8409 26.3547 32.4139 26.3473C31.5613 26.3324 30.4303 26.0048 29.2312 25.5841C28.6288 25.3727 28.0038 25.1358 27.3821 24.8992L27.2796 24.8602C26.6917 24.6364 26.108 24.4142 25.547 24.2142C24.4685 23.8296 23.4926 23.534 22.7484 23.463C22.7523 23.4747 22.7564 23.4868 22.7605 23.4991C22.9049 23.929 23.1758 24.7357 23.3372 25.5245C23.4394 26.0241 23.5019 26.5339 23.4568 26.9504C23.4122 27.3623 23.2538 27.739 22.861 27.8691C22.7776 27.8967 22.6876 27.8515 22.66 27.768C22.6324 27.6846 22.6776 27.5946 22.761 27.567C22.9723 27.4971 23.1002 27.2878 23.1404 26.9162C23.1801 26.5493 23.1257 26.0783 23.0255 25.5882C22.8691 24.8237 22.6113 24.0553 22.4647 23.6184C22.4232 23.4948 22.3907 23.3978 22.3718 23.3348C22.3571 23.2858 22.3669 23.2328 22.3981 23.1922C22.4293 23.1517 22.4781 23.1286 22.5292 23.1302C23.3531 23.1559 24.4651 23.4906 25.6539 23.9145C26.2181 24.1157 26.8047 24.339 27.3917 24.5624L27.4952 24.6018C28.1174 24.8385 28.7386 25.0741 29.3366 25.2839C30.5382 25.7055 31.6244 26.0152 32.4195 26.0291C32.8162 26.0361 33.118 25.9685 33.3241 25.8257C33.507 25.6989 33.6336 25.4994 33.674 25.1864L33.4445 24.9997C31.8115 24.6514 29.7268 23.5632 27.696 22.3531C26.6697 21.7415 25.6521 21.0956 24.7072 20.4926C24.6124 20.4321 24.5184 20.372 24.4251 20.3125C23.5881 19.7779 22.8162 19.285 22.1528 18.8876L22.1496 18.8857L21.6785 18.5881C21.3668 18.3913 20.9745 18.3245 20.5409 18.3186C20.2315 18.3144 19.9171 18.3406 19.6063 18.3665Z" fill="black"/>
<path d="M22.2336 18.751C25.9824 18.9268 29.6153 19.2696 33.2815 18.3706L33.6685 18.4741C34.4956 21.1003 28.0998 21.2475 26.5173 21.4029L22.2336 18.751Z" fill="white"/>
<path fill-rule="evenodd" clip-rule="evenodd" d="M33.2436 18.216C33.2696 18.2096 33.2968 18.2099 33.3226 18.2168L33.7096 18.3204C33.7622 18.3344 33.8039 18.3744 33.8202 18.4263C33.9331 18.7846 33.9253 19.1116 33.812 19.4049C33.6996 19.6957 33.4887 19.9396 33.2188 20.1444C32.6827 20.5512 31.8838 20.8266 31.0317 21.0201C29.6884 21.3251 28.1533 21.4379 27.182 21.5093C26.9194 21.5286 26.6981 21.5449 26.5329 21.5611C26.4981 21.5645 26.4632 21.5564 26.4336 21.538L22.1499 18.8862L22.2336 18.7509L22.2411 18.592C22.7003 18.6135 23.1571 18.6375 23.612 18.6613C26.882 18.8329 30.0497 18.9992 33.2436 18.216ZM22.8414 18.94L26.5555 21.2393C26.7226 21.2239 26.9328 21.2084 27.1755 21.1905C28.1494 21.1188 29.6451 21.0087 30.9613 20.7098C31.8026 20.5188 32.5464 20.2553 33.0264 19.891C33.2645 19.7103 33.43 19.5106 33.5152 19.2901C33.5916 19.0926 33.6079 18.8669 33.5404 18.6045L33.2797 18.5347C30.0504 19.3188 26.8455 19.1502 23.5931 18.9791C23.3428 18.9659 23.0922 18.9528 22.8414 18.94Z" fill="black"/>
<path fill-rule="evenodd" clip-rule="evenodd" d="M20.3156 18.9277C20.3582 18.8508 20.4551 18.8231 20.5319 18.8657C20.8087 19.0191 21.0538 19.2976 21.27 19.6304C21.4879 19.9658 21.6857 20.3709 21.8625 20.7953C22.216 21.6443 22.4925 22.5886 22.6782 23.2459C22.7021 23.3304 22.6529 23.4183 22.5683 23.4422C22.4838 23.4661 22.3959 23.4169 22.372 23.3324C22.1864 22.6756 21.9143 21.7475 21.5688 20.9176C21.396 20.5027 21.2066 20.1169 21.0032 19.8037C20.798 19.4879 20.5874 19.2602 20.3776 19.144C20.3008 19.1014 20.273 19.0045 20.3156 18.9277Z" fill="black"/>
<path fill-rule="evenodd" clip-rule="evenodd" d="M19.8568 20.3305C19.9347 20.2899 20.0308 20.3203 20.0713 20.3983C20.5502 21.3197 20.7786 22.7238 20.9228 24.1076C20.9859 24.713 21.0333 25.3205 21.0776 25.8884C21.0842 25.9728 21.0907 26.0563 21.0972 26.1388C21.1429 26.7191 21.1872 27.248 21.2443 27.6849L21.786 27.7062L22.2591 27.6899L22.8093 27.5499C22.8945 27.5283 22.9811 27.5797 23.0027 27.6649C23.0244 27.75 22.9729 27.8366 22.8878 27.8583L22.321 28.0025C22.3099 28.0053 22.2986 28.0069 22.2872 28.0073L21.7911 28.0244C21.7872 28.0245 21.7833 28.0245 21.7794 28.0244L21.0985 27.9976C21.0218 27.9946 20.9582 27.9372 20.9473 27.8612C20.8795 27.389 20.8302 26.8017 20.78 26.1638C20.7735 26.081 20.767 25.9973 20.7604 25.9128C20.716 25.3446 20.6689 24.7416 20.6063 24.1406C20.4617 22.7528 20.2365 21.406 19.789 20.545C19.7484 20.467 19.7788 20.371 19.8568 20.3305Z" fill="black"/>
<path fill-rule="evenodd" clip-rule="evenodd" d="M17.0041 24.8678C17.0907 24.8643 17.1641 24.9308 17.1692 25.0173C17.171 25.0475 17.1718 25.0773 17.1715 25.1066C17.1765 25.2756 17.1862 25.3854 17.2191 25.4698C17.2494 25.5476 17.3044 25.6145 17.448 25.6771L18.2391 25.8605C18.3073 25.8305 18.3697 25.804 18.4273 25.7795C18.6022 25.7052 18.7334 25.6494 18.8486 25.5722C18.9945 25.4743 19.1104 25.342 19.215 25.0727C19.2467 24.991 19.3385 24.9504 19.4203 24.9818C19.5021 25.0132 19.5431 25.1048 19.512 25.1868C19.408 25.4605 19.2861 25.6428 19.1182 25.78C18.9562 25.9124 18.7608 25.994 18.538 26.0842L18.538 26.0842C18.5218 26.0907 18.5054 26.0974 18.4889 26.104C18.4648 26.1137 18.4403 26.1236 18.4152 26.1338C18.4409 26.4313 18.6596 26.6779 18.9169 26.8311C18.9924 26.8761 19.0172 26.9737 18.9722 27.0492C18.9273 27.1247 18.8296 27.1495 18.7541 27.1045C18.4513 26.9242 18.1312 26.5963 18.0974 26.1543L17.3624 25.9839C17.3536 25.9818 17.345 25.9791 17.3367 25.9756C17.1773 25.9086 17.063 25.8226 16.9865 25.7085C16.8651 25.8855 16.6925 26.0249 16.4908 26.1353C16.0738 26.3635 15.5047 26.4829 14.9071 26.5475C14.306 26.6125 13.6578 26.6237 13.073 26.6252C12.9374 26.6256 12.8057 26.6254 12.6789 26.6253C12.2535 26.6248 11.8832 26.6244 11.6081 26.6434C11.5204 26.6494 11.4444 26.5833 11.4384 26.4956C11.4323 26.408 11.4985 26.332 11.5861 26.326C11.8735 26.3061 12.2601 26.3066 12.6883 26.3071C12.8132 26.3072 12.9416 26.3074 13.0721 26.3071C13.6555 26.3055 14.2896 26.2943 14.8729 26.2312C15.4599 26.1677 15.9776 26.0534 16.338 25.8562C16.5164 25.7585 16.6492 25.6443 16.7347 25.5127C16.8076 25.4005 16.8504 25.2694 16.8532 25.1117C16.8525 25.0847 16.8519 25.0575 16.8514 25.0301C16.8496 24.9434 16.9175 24.8713 17.0041 24.8678Z" fill="black"/>
<path fill-rule="evenodd" clip-rule="evenodd" d="M14.0302 26.3293C14.1123 26.298 14.2042 26.3392 14.2355 26.4213C14.5057 27.1295 15.1893 27.5126 16.0227 27.7577C16.4363 27.8794 16.8759 27.964 17.3026 28.0391C17.3871 28.0539 17.4713 28.0685 17.5548 28.0829C17.8862 28.1401 18.2057 28.1953 18.4844 28.2614L20.0698 28.4917C20.2904 28.5178 20.5144 28.4797 20.6775 28.3756C20.833 28.2763 20.946 28.1099 20.9453 27.8389C20.9451 27.751 21.0161 27.6796 21.104 27.6794C21.1918 27.6792 21.2632 27.7502 21.2635 27.8381C21.2644 28.2162 21.0975 28.4849 20.8487 28.6438C20.608 28.7974 20.3043 28.8403 20.03 28.8074L20.0261 28.8069L20.0261 28.8069L18.4316 28.5753C18.4269 28.5746 18.4222 28.5737 18.4175 28.5726C18.148 28.5083 17.839 28.4549 17.506 28.3974C17.4212 28.3827 17.335 28.3678 17.2474 28.3524C16.8192 28.277 16.3647 28.19 15.9329 28.063C15.0757 27.8108 14.2639 27.3882 13.9382 26.5347C13.9069 26.4526 13.9481 26.3607 14.0302 26.3293Z" fill="black"/>
<path fill-rule="evenodd" clip-rule="evenodd" d="M16.7184 26.0258C16.6503 26.0527 16.5625 26.0949 16.4503 26.1565C16.3733 26.1988 16.2765 26.1706 16.2343 26.0936C16.192 26.0165 16.2201 25.9198 16.2972 25.8776C16.4158 25.8124 16.5165 25.7635 16.6015 25.7299C16.6844 25.6971 16.7622 25.675 16.8322 25.6718C16.9045 25.6684 16.9891 25.6852 17.0512 25.754C17.1082 25.8174 17.119 25.8957 17.1198 25.9504C17.1211 26.0514 17.0872 26.1794 17.0584 26.2883C17.057 26.2936 17.0556 26.2988 17.0542 26.304C17.0212 26.4286 16.99 26.5485 16.9803 26.6577C16.9726 26.7452 16.8953 26.8099 16.8078 26.8021C16.7203 26.7944 16.6556 26.7171 16.6634 26.6296C16.6757 26.4907 16.7139 26.3463 16.7451 26.2283C16.7456 26.2264 16.7461 26.2245 16.7466 26.2227C16.7729 26.1232 16.7913 26.0505 16.7984 25.9986C16.7778 26.0042 16.7515 26.0128 16.7184 26.0258ZM16.8007 25.9425C16.8007 25.9425 16.8008 25.9429 16.8009 25.9437C16.8007 25.943 16.8006 25.9426 16.8007 25.9425Z" fill="black"/>
<path fill-rule="evenodd" clip-rule="evenodd" d="M17.4895 25.7002C17.5774 25.7002 17.6486 25.7714 17.6486 25.8593V25.8593C17.6486 25.9454 17.5801 26.0159 17.4941 26.0183C17.2877 26.0243 17.1807 26.0769 17.1153 26.1554C17.0434 26.2418 16.9943 26.3915 16.9798 26.6525C16.9749 26.7402 16.8999 26.8074 16.8121 26.8025C16.7244 26.7977 16.6572 26.7226 16.6621 26.6349C16.6777 26.3549 16.7316 26.119 16.8708 25.9518C17.0161 25.7773 17.2272 25.7082 17.482 25.7004C17.4845 25.7003 17.487 25.7002 17.4895 25.7002Z" fill="black"/>
</g>
<defs>
<clipPath id="clip0_7006_12002">
<rect width="40" height="53.3333" fill="white"/>
</clipPath>
</defs>
</svg>
